<?xml version="1.0" encoding="utf-8"?>
<!-- Generator: Adobe Illustrator 16.0.0, SVG Export Plug-In . SVG Version: 6.00 Build 0)  -->
<!DOCTYPE svg PUBLIC "-//W3C//DTD SVG 1.1//EN" "http://www.w3.org/Graphics/SVG/1.1/DTD/svg11.dtd">
<svg version="1.1" id="Layer_1" xmlns="http://www.w3.org/2000/svg" xmlns:xlink="http://www.w3.org/1999/xlink" x="0px" y="0px"
	 width="24px" height="24px" viewBox="0 0 24 24" enable-background="new 0 0 24 24" xml:space="preserve">
<path fill="#AAAAAA" d="M6.272,17.728c-1.209-1.209-1.209-3.175,0-4.384l2.828-2.829L7.757,9.171L4.929,12
	c-1.951,1.951-1.951,5.119,0,7.071c1.951,1.951,5.12,1.951,7.071,0l2.829-2.829l-1.344-1.344l-2.829,2.829
	C9.447,18.937,7.481,18.937,6.272,17.728z M9.878,15.535l5.658-5.657l-1.414-1.414l-5.658,5.657L9.878,15.535z M12,4.929
	L9.171,7.757l1.344,1.344l2.829-2.829c1.209-1.209,3.175-1.208,4.384,0s1.209,3.174,0,4.383l-2.828,2.828l1.344,1.344L19.071,12
	c1.951-1.951,1.951-5.12,0-7.071C17.119,2.978,13.951,2.978,12,4.929z"/>
</svg>
