<?xml version="1.0" encoding="utf-8"?>
<!-- Generator: Adobe Illustrator 16.0.0, SVG Export Plug-In . SVG Version: 6.00 Build 0)  -->
<!DOCTYPE svg PUBLIC "-//W3C//DTD SVG 1.1//EN" "http://www.w3.org/Graphics/SVG/1.1/DTD/svg11.dtd">
<svg version="1.1" id="Layer_1" xmlns="http://www.w3.org/2000/svg" xmlns:xlink="http://www.w3.org/1999/xlink" x="0px" y="0px"
	 width="400px" height="200px" viewBox="0 0 400 200" enable-background="new 0 0 400 200" xml:space="preserve">
<g>
	<path fill="#1ABC9C" d="M63.559,55.817c3.64,0,5.774,3.515,6.025,6.653c0.879,11.296,1.506,22.593,2.511,33.889
		c13.43-10.794,24.225-24.727,36.4-36.902c1.38-1.381,3.012-1.883,4.77-1.883c3.389,0,6.527,3.013,6.527,6.527
		c0,1.757-0.878,3.389-2.008,4.645c-3.891,4.393-14.309,15.815-24.853,26.233c5.648,7.154,11.673,17.07,17.071,23.849l-1.13-1.506
		c4.017,5.271,8.41,10.041,12.677,15.188c1.255,1.506,1.883,3.264,1.883,5.146c0,3.264-3.389,6.15-6.527,6.15
		c-1.632,0-3.515-0.754-4.644-2.009c-10.795-11.925-19.205-25.229-29.121-37.655l1.004,1.255c-0.376-0.376-0.628-0.878-1.004-1.255
		c-3.515,3.138-6.778,5.648-9.665,7.405c0.502,5.648,1.13,11.171,1.883,16.819c0.377,2.887,1.381,6.402,1.381,9.289
		c0,3.514-2.761,6.526-6.401,6.526c-2.762,0-6.025-1.883-6.527-4.77c-2.511-14.058-4.268-33.138-5.523-47.446
		c-0.879-9.916-1.883-20.208-1.883-30.125C56.405,58.077,60.17,55.817,63.559,55.817z"/>
	<path fill="#1ABC9C" d="M130.964,110.795c0-8.787,5.899-22.469,14.435-27.74c6.527-4.017,14.184-5.774,21.84-5.774
		c18.702,0,29.623,17.572,29.623,34.895c0,18.702-16.569,32.007-34.518,32.007C143.892,144.183,130.964,128.619,130.964,110.795z
		 M144.896,111.046c0,10.042,6.903,19.204,17.447,19.204c10.167,0,20.585-7.029,20.585-18.074c0-9.289-4.896-20.962-15.69-20.962
		C155.314,91.214,144.896,98.745,144.896,111.046z"/>
	<path fill="#1ABC9C" d="M204.393,110.795c0-8.787,5.899-22.469,14.435-27.74c6.526-4.017,14.184-5.774,21.841-5.774
		c18.701,0,29.621,17.572,29.621,34.895c0,18.702-16.568,32.007-34.518,32.007C217.32,144.183,204.393,128.619,204.393,110.795z
		 M218.325,111.046c0,10.042,6.903,19.204,17.446,19.204c10.168,0,20.586-7.029,20.586-18.074c0-9.289-4.896-20.962-15.689-20.962
		C228.743,91.214,218.325,98.745,218.325,111.046z"/>
	<path fill="#1ABC9C" d="M277.822,110.795c0-8.787,5.898-22.469,14.434-27.74c6.527-4.017,14.184-5.774,21.84-5.774
		c18.703,0,29.623,17.572,29.623,34.895c0,18.702-16.568,32.007-34.518,32.007C290.75,144.183,277.822,128.619,277.822,110.795z
		 M291.754,111.046c0,10.042,6.904,19.204,17.447,19.204c10.168,0,20.586-7.029,20.586-18.074c0-9.289-4.896-20.962-15.691-20.962
		C302.172,91.214,291.754,98.745,291.754,111.046z"/>
</g>
</svg>
